<svg width="50" height="50" viewBox="0 0 50 50" fill="none" xmlns="http://www.w3.org/2000/svg">
<path d="M25 4.1665C36.5 4.1665 45.8333 13.4998 45.8333 24.9998C45.8333 36.4998 36.5 45.8332 25 45.8332C13.5 45.8332 4.16663 36.4998 4.16663 24.9998C4.16663 13.4998 13.5 4.1665 25 4.1665ZM12.5479 32.1165C15.6062 36.679 20.1979 39.5832 25.3333 39.5832C30.4666 39.5832 35.0604 36.6811 38.1166 32.1165C34.6494 28.8761 30.079 27.0765 25.3333 27.0832C20.5869 27.076 16.0156 28.8756 12.5479 32.1165ZM25 22.9165C26.6576 22.9165 28.2473 22.258 29.4194 21.0859C30.5915 19.9138 31.25 18.3241 31.25 16.6665C31.25 15.0089 30.5915 13.4192 29.4194 12.2471C28.2473 11.075 26.6576 10.4165 25 10.4165C23.3424 10.4165 21.7526 11.075 20.5805 12.2471C19.4084 13.4192 18.75 15.0089 18.75 16.6665C18.75 18.3241 19.4084 19.9138 20.5805 21.0859C21.7526 22.258 23.3424 22.9165 25 22.9165Z" fill="black"/>
</svg>
